<?xml version="1.0" standalone="no"?>
<!DOCTYPE svg PUBLIC "-//W3C//DTD SVG 20010904//EN"
 "http://www.w3.org/TR/2001/REC-SVG-20010904/DTD/svg10.dtd">
<svg version="1.0" xmlns="http://www.w3.org/2000/svg"
 width="310.000000pt" height="310.000000pt" viewBox="0 0 310.000000 310.000000"
 preserveAspectRatio="xMidYMid meet">
<metadata>
Created by potrace 1.11, written by Peter Selinger 2001-2013
</metadata>
<g transform="translate(0.000000,310.000000) scale(0.100000,-0.100000)"
fill="#000000" stroke="none">
<path d="M1679 2960 c-40 -38 -103 -75 -144 -86 -5 -2 -34 -12 -62 -23 -29
-12 -53 -17 -53 -12 0 6 5 13 11 16 6 4 8 13 5 21 -3 8 -1 14 4 14 15 0 12 40
-4 46 -8 3 -40 -13 -72 -35 -33 -23 -65 -41 -71 -41 -7 0 -13 -5 -13 -11 0 -5
-4 -7 -10 -4 -5 3 -10 1 -10 -4 0 -6 -6 -11 -12 -11 -7 0 -24 -6 -38 -13 -28
-15 -172 -67 -183 -66 -12 0 -174 -64 -217 -86 -72 -38 -76 -38 -96 -7 -29 45
-79 88 -120 104 -44 17 -133 21 -152 6 -6 -6 -12 -7 -12 -4 0 4 -12 -6 -26
-21 -29 -31 -47 -69 -46 -95 0 -10 -5 -18 -11 -18 -8 0 -8 -3 -2 -8 6 -4 11
-22 12 -41 3 -43 32 -106 71 -150 24 -28 28 -38 19 -52 -6 -10 -13 -16 -15
-14 -5 4 -81 -72 -100 -101 -21 -31 -70 -139 -78 -170 -4 -16 -12 -32 -18 -36
-8 -5 -7 -8 1 -8 9 0 10 -7 5 -22 -5 -13 -8 -32 -8 -43 1 -11 -3 -23 -9 -27
-7 -5 -7 -8 0 -8 6 0 9 -23 9 -52 -1 -61 26 -177 55 -239 16 -32 19 -54 15
-97 -3 -30 -7 -59 -10 -63 -2 -4 0 -10 6 -14 6 -4 7 -13 1 -23 -4 -9 -9 -48
-11 -87 -1 -38 -4 -110 -6 -160 -2 -49 -5 -107 -6 -128 -2 -20 0 -37 5 -37 4
0 4 -8 0 -17 -5 -10 -7 -85 -6 -168 2 -82 3 -159 2 -170 0 -11 0 -28 0 -37 0
-10 1 -33 1 -50 0 -35 1 -67 4 -136 1 -24 -2 -46 -7 -49 -4 -3 -4 -10 1 -16 5
-7 9 -73 10 -147 1 -74 6 -138 11 -143 12 -12 2472 -10 2485 3 5 5 11 38 13
72 2 35 5 69 8 75 2 7 -1 13 -7 13 -7 0 -7 4 0 13 7 8 7 18 2 27 -5 8 -6 19
-2 25 10 16 9 345 -1 345 -5 0 -4 7 3 15 9 11 9 15 1 15 -7 0 -9 5 -5 12 6 10
9 72 4 81 -6 9 -4 70 3 74 4 2 5 9 1 14 -3 6 -8 63 -10 127 -7 206 -12 301
-19 323 -5 15 -4 19 5 14 9 -6 9 -3 2 12 -6 10 -12 50 -13 88 -3 68 0 78 38
140 11 18 21 39 40 85 9 23 15 43 16 63 1 9 5 17 10 17 5 0 7 9 4 20 -3 11 -2
22 3 25 10 6 6 200 -4 235 -5 14 -8 33 -8 43 1 9 -3 17 -9 17 -5 0 -8 3 -7 8
4 12 -24 75 -54 119 -15 23 -28 47 -28 54 0 7 -2 10 -5 8 -2 -3 -27 16 -55 42
l-51 48 33 58 c36 64 35 60 46 125 6 30 5 51 -2 58 -5 5 -7 10 -3 10 12 0 -24
62 -47 81 -22 19 -109 51 -101 38 3 -4 -9 -6 -27 -5 -35 3 -88 -13 -88 -26 0
-4 -5 -8 -12 -8 -6 0 -32 -22 -58 -50 l-46 -49 -57 34 c-32 19 -62 35 -67 35
-4 0 -10 4 -12 8 -4 11 -152 69 -213 83 -61 14 -61 15 -45 34 7 8 9 15 6 15
-4 0 -2 9 4 20 8 15 7 21 -8 29 -10 5 -24 6 -32 1 -7 -4 -19 -6 -27 -3 -7 3
-13 -1 -13 -8 0 -7 -3 -10 -6 -7 -3 3 -21 2 -41 -4 -77 -21 -146 -32 -141 -21
6 13 24 55 36 85 7 18 8 29 1 33 -5 4 -7 10 -4 15 13 20 -33 13 -56 -10z"/>
</g>
</svg>
